<?xml version="1.0" encoding="utf-8"?>
<!-- Generator: Adobe Illustrator 18.1.0, SVG Export Plug-In . SVG Version: 6.00 Build 0)  -->
<!DOCTYPE svg PUBLIC "-//W3C//DTD SVG 1.1//EN" "http://www.w3.org/Graphics/SVG/1.1/DTD/svg11.dtd">
<svg version="1.1" id="レイヤー_1" xmlns="http://www.w3.org/2000/svg" xmlns:xlink="http://www.w3.org/1999/xlink" x="0px"
	 y="0px" viewBox="0 0 240.9 237.3" enable-background="new 0 0 240.9 237.3" xml:space="preserve">
<g>
	<path d="M240.8,100.7l-41.5-71.9c-0.1-0.2-0.3-0.4-0.5-0.4l-78-28.4c-0.2-0.1-0.5-0.1-0.7,0l-78,28.4c-0.2,0.1-0.4,0.2-0.5,0.4
		L0.1,100.7C0,101,0,101.2,0,101.4l14.4,81.7c0,0.2,0.2,0.4,0.3,0.6l63.6,53.3c0.2,0.2,0.4,0.2,0.6,0.2h83c0.2,0,0.5-0.1,0.6-0.2
		l63.6-53.3c0.2-0.2,0.3-0.4,0.3-0.6l14.4-81.7C241,101.2,240.9,101,240.8,100.7z M120.5,231.2c-60.2,0-109-48.8-109-109
		c0-60.2,48.8-109,109-109c60.2,0,109,48.8,109,109C229.5,182.4,180.7,231.2,120.5,231.2z"/>
	<path d="M55,112.7c0.2,0,0.4,0,0.6-0.1c6.3-3.5,12.9-7.3,17.3-13.3c0.8,0.6,1.7,1.3,2.4,2.1c0.5,0.5,0.9,1,1.4,1.5
		c0.4,0.5,0.8,0.9,1.2,1.4c0.3,0.4,0.8,0.6,1.3,0.6c0.7,0,1.4-0.5,1.7-1.2c0.3-0.7,0.2-1.4-0.4-1.9c-1.8-1.8-3.7-3.4-6-4.9
		c2-3.1,3.2-6.7,3.9-11.2c0-0.9,0-1,0-1.5c0-2.4-3.8-2.4-3.8,0c0,0.2,0,0.4,0,0.5c0,0.2,0,0.5,0,0.9c-0.1,2.9-1.2,6.4-2.9,9.6
		c-2.9-1.6-6-3-9.1-4.4c-0.7-0.2-1.4,0.2-1.6,0.9c-0.1,0.5,0.1,1,0.6,1.3c3.4,1.6,6.1,3.1,8.6,4.6c-4,5.7-10,9.5-15.9,13
		c-0.5,0.3-0.6,0.8-0.5,1.3C54.1,112.4,54.5,112.7,55,112.7z"/>
	<path d="M94.8,84.4h1c0.3,0,0.6,0.4,0.6,0.8l0,26.8c0,0.7,0.3,1.1,0.6,1.3c0.3,0.3,0.7,0.5,1.2,0.5c0.8,0,1.7-0.6,1.7-1.7V96.8
		c4,2.8,8.1,4.1,12.6,4.1c0.2,0,0.4,0,0.6,0c1.1-0.1,1.7-0.9,1.7-1.8c0-0.9-0.6-1.7-1.8-1.7c0,0,0,0,0,0c-5.5,0.1-9.7-1-12.9-3.5
		c-0.1-0.1-0.2-0.2-0.2-0.4l0-7.6c-0.1-2.6-1.6-4-3.9-4h-1.2c-0.8,0-1.2,0.6-1.2,1.2C93.6,83.8,94.1,84.4,94.8,84.4z"/>
	<path d="M151.6,109.3c1,0,1.8-0.9,1.8-1.9V90.1c0-1-0.8-1.8-1.8-1.8l-21.7,0c-0.9,0.1-1.8,0.7-1.8,1.8v17.3c0,1,0.8,1.9,1.8,1.9
		H151.6z M131.7,106.7l0-15.8l18.1,0l0,15.8L131.7,106.7z"/>
	<path d="M191.1,98.6c-0.2-2.7-1.3-5.2-3-7c-1.7-1.9-4.1-3.1-7.2-3.5c-2.7-0.4-5.5,0-8,1c-3.6,1.5-6.4,4.1-7.7,7.4
		c-1.2,2.7-1.7,7.6,1.7,9.7c0.8,0.5,1.7,0.8,2.7,0.8c2.7,0,5.1-2.3,6.5-4.4c1.7-2.7,2.7-5.9,3-9.7c0.1-1.1,0.1-2,0-2.6v0
		c0.6,0,1,0.1,1.5,0.2c2.2,0.4,4.2,1.5,5.4,3c1.2,1.5,1.8,3.4,1.9,5.4c0,2-0.4,3.6-1.3,4.9c-0.8,1.2-1.9,2.3-3.1,3.1
		c-1.9,1.1-4.1,1.9-6.5,2.2c-0.6,0.1-1,0.5-0.9,1.1c0,0.6,0.5,1,1,1l0.1,0c3.3-0.3,5.5-0.9,7.6-2c1.8-1,3.3-2.2,4.3-3.8
		c1.4-1.9,2.1-4.3,1.9-6.6L191.1,98.6z M176.6,90.3c0,0.1,0,0.3,0,0.5c0,0.5,0,1.1-0.1,1.8c-0.3,3-1.1,5.4-2.4,7.5
		c-1.5,2.5-3,3.7-4.4,3.7c-0.1,0-0.3,0-0.4,0c-2.5-0.5-1.8-4.5-1.7-4.9c0.7-3.1,3-6,6.3-7.6C174.8,90.8,175.7,90.5,176.6,90.3z
		 M177.1,110.5L177.1,110.5L177.1,110.5L177.1,110.5z"/>
	<path d="M80.2,151.4c-0.3-0.3-0.5-0.3-0.7-0.3c-0.2,0-0.5,0.1-0.8,0.4l-1.4,1.8h-9.6V150h7.1v0.7c0,0.7,0.4,1.1,1.1,1.1h1
		c0.6,0,1-0.4,1-1.1v-10.2l0.7-0.5c0.4-0.3,0.5-0.6,0.5-0.9c0-0.3-0.2-0.8-2-2.2c-0.5-0.4-1.2-0.3-1.5,0.2l-0.9,1.1h-7.1v-2.7h12.9
		c0.5,0,0.9-0.2,1.1-0.6c0.1-0.3,0.3-0.8-0.2-1.3c-0.7-0.8-1.2-1.3-1.7-1.8c-0.3-0.3-0.5-0.3-0.7-0.3c-0.2,0-0.5,0.1-0.8,0.4
		l-1.3,1.7h-9.2v-2.2c1.2-0.4,1.7-0.9,1.7-1.4c0-1-1.5-1.3-3.7-1.4c-0.6,0-1.1,0.4-1.1,1.1v4H52.1c-0.4,0-0.7,0.1-0.9,0.4
		c-0.1,0.2-0.2,0.5-0.1,0.8c0.2,0.5,0.6,0.8,1.1,0.8h12.3v2.7h-6.9c-0.7-0.4-1.3-0.7-1.8-0.9c-0.6-0.3-1.4-0.1-1.4,0.9v13
		c0,0.6,0.4,1,1.1,1h1c0.6,0,1-0.4,1-1v-1h6.9v3.3H51.3c-0.4,0-0.7,0.1-0.9,0.4c-0.1,0.2-0.2,0.5-0.1,0.8c0.2,0.5,0.6,0.8,1.1,0.8
		h13v5.4c0,0.6,0.4,1,1.1,1h1c0.7,0,1.1-0.4,1.1-1v-5.4H81c0.4,0,0.8-0.2,1-0.6c0.3-0.5,0.3-1-0.1-1.4
		C81.3,152.6,80.7,152,80.2,151.4z M67.6,142.9v-3h7.1v3H67.6z M67.6,148.1v-3.3h7.1v3.3H67.6z M64.5,144.8v3.3h-6.9v-3.3H64.5z
		 M57.6,142.9v-3h6.9v3H57.6z"/>
	<path d="M92.1,140.1c1,0,1.7-0.9,2.1-1.5c0.8-1.3,1.1-2.8,1.1-4.5h4.6c-0.1,0.1-0.1,0.2-0.2,0.3c-1.9,3.7-4.8,6.4-8.9,8.4
		c-0.3,0.2-0.5,0.4-0.6,0.7c0,0.2-0.1,0.4,0.1,0.7c0.2,0.3,0.5,0.5,0.9,0.5c0.1,0,0.3,0,0.4-0.1c4.6-1.6,8.1-4.2,10.4-7.7
		c0.7,0,1.9-0.2,1.9-1c0-0.6-0.6-1.1-2.1-1.7h5.1c-0.1,0.2-0.2,0.4-0.2,0.7v4.2c0,1.5,0.7,2.1,1.2,2.4c0.4,0.2,1.4,0.4,5.3,0.4
		c3.6,0,5.4-0.1,6.1-0.3c0.8-0.3,1.3-0.8,1.5-1.6c0.1-0.3,0.1-0.9-0.7-1.2c-0.4-0.2-0.5-0.9-0.5-1.4c0-0.1,0-0.1,0-0.2l0-0.2
		c0-0.4-0.3-0.7-0.6-0.9c-0.3-0.1-0.5-0.1-0.8,0c0.5-0.3,0.9-0.6,1.2-0.9l1.2-0.1c0.9-0.1,0.9-0.6,0.9-0.9c0-0.5-0.3-1.2-2.5-3.2
		c-0.2-0.2-0.5-0.3-0.7-0.3c-0.2,0-0.5,0.1-0.8,0.4l-0.8,1h-9.6v-1.3c0.9-0.3,1.5-0.7,1.5-1.3c0-1.1-1.8-1.3-3.5-1.3
		c-0.7,0-1.1,0.4-1.1,1.1v2.8h-9.2c0-0.1,0-0.1,0-0.2l0-0.2c-0.1-0.7-0.6-0.8-0.8-0.9l-0.1,0c-0.6,0-1,0.4-1,1
		c-0.2,2.1-0.8,3.7-1.9,4.9c-0.5,0.6-0.9,1.1-0.9,1.6C90.3,139.4,91,140.1,92.1,140.1z M115.2,135.7c-0.2,0.3-0.3,0.5-0.3,0.8
		c0,0.2,0.1,0.4,0.3,0.5c0.3,0.3,0.6,0.3,0.8,0.3c0.2,0,0.4-0.1,0.6-0.2c0.6-0.4,1.1-0.7,1.6-1c-0.1,0.1-0.3,0.4-0.3,0.7
		c-0.1,0.9-0.4,1.5-0.7,1.8c0,0-0.5,0.3-3.4,0.3c-2.9,0-3.6-0.1-3.7-0.1c-0.1,0-0.3-0.1-0.3-0.5v-3.6l0-0.1c0-0.2-0.1-0.4-0.3-0.5
		h6.9C116,134.6,115.6,135.2,115.2,135.7z"/>
	<path d="M116.2,149.3c0.6,0.9,1.2,1.3,1.8,1.3c1.1,0,1.7-0.7,1.7-1.8c0-0.9-0.7-1.9-2-3c-1.7-1.4-4.2-2.6-7.3-3.7
		c-0.8-0.2-1.2,0.2-1.2,0.3c-0.3,0.5-0.2,1.1,0.4,1.5c1.2,0.6,2.2,1.3,3,1.9c-3.6,0.2-7.2,0.4-10.8,0.5c1.7-1.9,2.8-3.3,3.4-4.4
		c0.7,0,1.8-0.2,1.8-1.1c0-0.7-0.9-1.4-2.9-2.1c-0.6-0.2-1.2,0.1-1.3,0.7c-1.1,2.7-2.3,5.1-3.8,7.1c-2.3,0-4,0-5.2,0c0,0,0,0,0,0
		c-0.2,0-0.4,0.1-0.6,0.3c-0.2,0.2-0.2,0.5-0.2,0.9c0.3,1.8,0.7,3.1,1.6,3.1c0.5,0,0.8-0.4,1.2-1.3c7-0.5,13.4-1.1,19-1.8
		C115.3,148.1,115.8,148.7,116.2,149.3z"/>
	<path d="M104.8,148.9c-0.3,0-0.5,0.2-0.5,0.2c-0.3,0.3-0.3,0.6-0.3,0.8c0,0.2,0.1,0.5,0.4,0.7c1.5,1.3,2.6,2.6,3.2,4.1
		c0.3,0.6,0.8,1,1.4,1c1.1,0,1.7-0.7,1.7-1.8c0-1.9-1.7-3.4-5.4-4.9C105.1,148.9,104.9,148.9,104.8,148.9z"/>
	<path d="M115.8,150.8c-0.6-0.2-1.1-0.1-1.3,0.2c-0.4,0.5-0.3,1.1,0.2,1.5c2.2,1.7,3.7,3.5,4.4,5.3c0.3,0.7,0.8,1.6,1.8,1.6
		c1.1,0,1.8-0.7,1.8-1.9C122.6,155.2,120.4,153,115.8,150.8z"/>
	<path d="M95.4,151.4c-0.1,0-0.2-0.1-0.4-0.1c-0.3,0-0.8,0.1-1,0.8c-0.6,2.3-1.7,3.9-3.4,4.9c-0.9,0.5-1.3,1.1-1.3,1.7
		c0,1.2,0.7,1.9,1.9,1.9c1,0,1.9-0.6,2.8-1.9c1.2-1.6,1.8-3.7,2-6.3C96.2,151.7,95.7,151.5,95.4,151.4z"/>
	<path d="M115.2,157.7c-0.2-0.1-0.3-0.2-0.4-0.4c-0.1-0.4-0.2-1.6-0.2-2.6c0-0.7-0.4-1-0.7-1.1c-0.7-0.3-1.3,0.1-1.3,0.8
		c-0.2,1.3-0.3,2.2-0.6,2.8c-0.2,0.5-0.5,0.7-1,0.7c-0.1,0-0.2,0-0.3,0c-0.1,0-0.1,0-0.2,0c-1.1,0.1-2.5,0.1-4.3,0.1
		c-3.1,0-4.1-0.1-4.3-0.2c-0.1-0.1-0.2-0.3-0.2-0.6v-4.6c0.7-0.3,1.4-0.6,1.4-1.2c0-0.8-1-1.2-3.3-1.4l-0.1,0c-0.6,0-1,0.4-1,1v6.7
		c0,0.8,0.1,1.9,0.9,2.5c0.5,0.4,1.9,0.6,6.9,0.6c4.1,0,6.5-0.1,7.5-0.4c1.1-0.2,1.7-0.8,2-1.8C116,158.7,116.1,158,115.2,157.7z"/>
	<path d="M141.7,139.3c0.5-2.4,0.6-4.3,0.7-6.6c0-0.5-0.1-0.9-0.4-1.2c-0.8-0.8-2.8-0.5-2.8,1.1c0,1.6-0.1,3.4-0.3,5
		c-0.1,0.6-0.2,1.2-0.4,1.8c-1,0-5.2,0-8.1,0c-0.8,0-1.3,0.6-1.3,1.2c0,0.6,0.5,1.2,1.3,1.2l7.3,0c-0.3,0.8-0.6,1.6-0.9,2.3
		c-1.6,3.9-4,7.3-6.6,10.6c0,0-0.1,0.1-0.1,0.1c-0.1,0.1-0.2,0.2-0.3,0.4c-0.5,0.7-0.3,1.7,0.4,2.2c0.7,0.6,1.8,0.4,2.3-0.4
		c2.7-3.7,5.4-7.6,7.3-12.1c0.4-1.1,0.9-2.2,1.2-3.3c0.3,0,0.6,0,0.9,0c2.7,0,3.9,0.7,4.1,2.4c0.3,2.7-1.2,5.6-2.8,8.3
		c-0.6,1-1.2,1.8-1.6,2.4c-0.3-0.5-0.8-1-1.3-1.5l-0.7-0.7c-0.6-0.6-1.7-0.3-2,0.4c-0.2,0.4-0.1,0.9,0.3,1.2l0.5,0.5
		c1.2,1.1,1.5,1.5,1.6,2.6c0,0.4,0.2,0.8,0.6,1.3c0.3,0.3,0.7,0.4,1.1,0.4c0.5,0,0.9-0.2,1.2-0.6c0.4-0.4,1-1.1,1-1.2
		c0.8-1,1.5-2,2.2-3.2c1.6-2.6,4.9-9,2.3-12.8C146.7,139.5,144,139.3,141.7,139.3z"/>
	<path d="M151.2,138.7c-0.7-0.2-1.4,0.2-1.6,0.9c-0.1,0.5,0.1,1.1,0.6,1.3c3,1.5,5.4,3.7,6.7,6.1c1,1.8,0.3,2.5-0.3,2.9
		c-0.9,0.6-2.1,0.7-3.3,0.8l-0.3,0c-0.6,0.1-1,0.6-1,1.2c0,0.6,0.5,1.1,1.1,1.1c0.3,0,0.7,0,1.1,0c1.4,0,3.1-0.1,4.5-0.9
		c2.2-1.3,2.2-4,1.3-5.9C158.5,143.1,155.2,140.3,151.2,138.7z"/>
	<path d="M186.2,146.2c-1.1-0.8-2.3-1.3-3.6-1.4c-3.8-0.3-6.9,0.5-10.8,2.7l0-7.5c0.2-2.9,4.1-3.2,8.2-3.2l0.7,0
		c0.5,0,1-0.2,1.3-0.6c0.3-0.4,0.5-0.9,0.4-1.5c-0.2-0.8-0.9-1.4-1.8-1.4l-0.1,0c-2.7,0.2-5.3-0.7-6.9-2.4c-0.5-0.6-1.6-0.4-2,0.3
		c-0.2,0.4-0.1,0.8,0.1,1.1c0.7,1.1,1.6,2,3,2.7c-0.7,0.1-1.4,0.2-2,0.4c-2.8,0.8-4.1,2.7-4.1,6.1v7.9c0,0.9,0.7,1.6,1.7,1.6
		c0.7,0,1.2-0.5,1.7-0.8c0.2-0.1,0.3-0.3,0.5-0.4c2.6-1.6,5-2.7,8.2-2.7c0.5,0,1.1,0,1.7,0.1c0.8,0.1,1.5,0.4,2.1,1
		c1,1,1,2.9,0.3,4.1c-1,2-3.2,3.4-6.4,4.2c-1.8,0.4-3.4,0.7-5.3,0.7c-0.3,0-0.6,0-0.8,0l-0.2,0c-0.6,0-1,0.5-1,1.1
		c0,0.6,0.4,1.1,1,1.1c0.9,0.1,1.7,0.2,2.5,0.2c1.3,0,2.6-0.1,4.5-0.4c4.5-0.8,7.5-2.5,8.8-5.2c0.4-0.7,0.6-1.3,0.7-2
		C188.8,149.9,187.9,147.7,186.2,146.2z"/>
</g>
</svg>
