<?xml version="1.0" encoding="utf-8"?>
<!-- Generator: Adobe Illustrator 18.1.0, SVG Export Plug-In . SVG Version: 6.00 Build 0)  -->
<!DOCTYPE svg PUBLIC "-//W3C//DTD SVG 1.1//EN" "http://www.w3.org/Graphics/SVG/1.1/DTD/svg11.dtd">
<svg version="1.1" id="レイヤー_1" xmlns="http://www.w3.org/2000/svg" xmlns:xlink="http://www.w3.org/1999/xlink" x="0px"
	 y="0px" viewBox="0 0 270.4 33.4" enable-background="new 0 0 270.4 33.4" xml:space="preserve">
<g>
	<path d="M20.8,16.5c2-3.1,3.2-6.7,3.9-11.2c0-0.9,0-1,0-1.5c0-2.4-3.8-2.4-3.8,0c0,0.2,0,0.4,0,0.5c0,0.2,0,0.5,0,0.9
		c-0.1,2.9-1.2,6.4-2.9,9.6c-2.9-1.6-6-3-9.1-4.4c-0.7-0.2-1.4,0.2-1.6,0.9c-0.1,0.5,0.1,1,0.6,1.3c3.4,1.6,6.1,3.1,8.6,4.6
		c-4,5.7-10,9.5-15.9,13c-0.5,0.3-0.6,0.8-0.5,1.3c0.2,0.5,0.6,0.9,1.1,0.9c0.2,0,0.4,0,0.6-0.1c6.3-3.5,12.9-7.3,17.3-13.3
		c0.8,0.6,1.7,1.3,2.4,2.1c0.5,0.5,0.9,1,1.4,1.5c0.4,0.5,0.8,0.9,1.2,1.4c0.3,0.4,0.8,0.6,1.3,0.6c0.7,0,1.4-0.5,1.7-1.2
		c0.3-0.7,0.2-1.4-0.4-1.9C25,19.7,23,18,20.8,16.5z"/>
	<path d="M56.9,17.1C56.9,17.1,56.8,17.1,56.9,17.1c-5.5,0.1-9.7-1-13-3.5c-0.1-0.1-0.2-0.2-0.2-0.4V5.6c-0.1-2.6-1.6-4-3.9-4h-1.2
		c-0.8,0-1.2,0.6-1.2,1.2c0,0.7,0.5,1.3,1.2,1.3h1c0.3,0,0.6,0.4,0.6,0.8l0,26.8c0,0.7,0.3,1.1,0.6,1.3c0.3,0.3,0.7,0.5,1.2,0.5
		c0.8,0,1.7-0.6,1.7-1.7V16.5c4,2.8,8.1,4.1,12.6,4.1c0.2,0,0.4,0,0.6,0c1.1-0.1,1.7-1,1.7-1.8C58.6,18,58,17.1,56.9,17.1z"/>
	<path d="M92.2,8L70.4,8c-0.9,0.1-1.8,0.7-1.8,1.8v17.3c0,1,0.8,1.9,1.8,1.9h21.7c1,0,1.8-0.9,1.8-1.9V9.8C94,8.8,93.2,8,92.2,8z
		 M90.4,10.6l0,15.8l-18.1,0l0-15.8L90.4,10.6z"/>
	<path d="M129.2,18.2c-0.2-2.7-1.3-5.2-3-7c-1.7-1.9-4.1-3.1-7.2-3.5c-2.7-0.4-5.5,0-8,1c-3.6,1.5-6.4,4.1-7.7,7.4
		c-1.2,2.7-1.7,7.6,1.7,9.7c0.8,0.5,1.7,0.8,2.7,0.8c2.7,0,5.1-2.3,6.5-4.4c1.7-2.7,2.7-5.9,3-9.7c0.1-1.1,0.1-2,0-2.6v0
		c0.6,0,1,0.1,1.5,0.2c2.2,0.4,4.2,1.5,5.4,3c1.2,1.5,1.8,3.4,1.9,5.4c0,2-0.4,3.6-1.3,4.9c-0.8,1.2-1.9,2.3-3.1,3.1
		c-1.9,1.1-4.1,1.9-6.5,2.2c-0.6,0.1-1,0.5-0.9,1.1c0,0.6,0.5,1,1,1l0.1,0c3.3-0.3,5.5-0.9,7.6-2c1.8-1,3.3-2.2,4.3-3.8
		c1.4-1.9,2.1-4.3,1.9-6.6L129.2,18.2z M114.8,10c0,0.1,0,0.3,0,0.5c0,0.5,0,1.1-0.1,1.8c-0.3,3-1.1,5.4-2.4,7.5
		c-1.5,2.5-3,3.7-4.4,3.7c-0.1,0-0.3,0-0.4,0c-2.5-0.5-1.8-4.5-1.7-4.9c0.7-3.1,3-6,6.3-7.6C112.9,10.5,113.8,10.2,114.8,10z
		 M115.2,30.2L115.2,30.2L115.2,30.2L115.2,30.2z"/>
	<path d="M164.8,23.1c-0.3-0.3-0.5-0.3-0.7-0.3c-0.2,0-0.5,0.1-0.8,0.4l-1.4,1.8h-9.6v-3.3h7.1v0.7c0,0.7,0.4,1.1,1.1,1.1h1
		c0.6,0,1-0.4,1-1.1V12.2l0.7-0.5c0.4-0.3,0.5-0.6,0.5-0.9c0-0.3-0.2-0.8-2-2.2c-0.5-0.4-1.2-0.3-1.5,0.2l-0.9,1.1h-7.1V7.1h12.9
		c0.5,0,0.9-0.2,1.1-0.6c0.1-0.3,0.3-0.8-0.2-1.3c-0.7-0.7-1.2-1.3-1.7-1.8C164,3,163.7,3,163.5,3c-0.2,0-0.5,0.1-0.8,0.4l-1.3,1.7
		h-9.2V2.9c1.2-0.4,1.7-0.9,1.7-1.4c0-1-1.5-1.3-3.7-1.4c-0.6,0-1.1,0.4-1.1,1.1v4h-12.4c-0.4,0-0.7,0.1-0.9,0.4
		c-0.1,0.2-0.2,0.5-0.1,0.8c0.2,0.5,0.6,0.8,1.1,0.8h12.3v2.7h-6.9c-0.6-0.3-1.2-0.7-1.8-0.9c-0.6-0.3-1.4-0.1-1.4,0.9v13
		c0,0.6,0.4,1,1.1,1h1c0.6,0,1-0.4,1-1v-1h6.9V25h-13.2c-0.4,0-0.7,0.1-0.9,0.4c-0.1,0.2-0.2,0.5-0.1,0.8c0.2,0.5,0.6,0.8,1.1,0.8
		h13v5.4c0,0.6,0.4,1,1.1,1h1c0.7,0,1.1-0.4,1.1-1v-5.4h13.4c0.4,0,0.8-0.2,1-0.6c0.3-0.5,0.3-1-0.1-1.4
		C165.9,24.2,165.3,23.7,164.8,23.1z M152.2,14.6v-3h7.1v3H152.2z M152.2,19.8v-3.3h7.1v3.3H152.2z M149.1,16.5v3.3h-6.9v-3.3H149.1
		z M142.2,14.6v-3h6.9v3H142.2z"/>
	<path d="M185.7,20.5c-0.3,0.3-0.3,0.6-0.3,0.8c0,0.2,0.1,0.5,0.4,0.7c1.5,1.2,2.5,2.6,3.2,4.1c0.3,0.6,0.8,0.9,1.4,0.9
		c1.1,0,1.7-0.6,1.7-1.8c0-1.8-1.7-3.4-5.3-4.8C186.1,20.2,185.8,20.4,185.7,20.5z"/>
	<path d="M173.8,11.7c1,0,1.7-0.8,2.1-1.5c0.7-1.3,1.1-2.8,1.1-4.4h4.6c-0.1,0.1-0.1,0.2-0.2,0.3c-1.9,3.7-4.7,6.4-8.7,8.2
		c-0.3,0.2-0.5,0.4-0.6,0.6c0,0.2-0.1,0.4,0.1,0.7c0.2,0.3,0.5,0.5,0.9,0.5c0.1,0,0.3,0,0.4-0.1c4.6-1.6,8-4.1,10.3-7.6
		c0.7,0,1.9-0.2,1.9-1c0-0.6-0.6-1.1-2.1-1.7h5c-0.1,0.2-0.2,0.4-0.2,0.6v4.2c0,1.5,0.7,2.1,1.2,2.3c0.4,0.2,1.3,0.4,5.3,0.4
		c3.6,0,5.3-0.1,6-0.3c0.8-0.3,1.3-0.8,1.4-1.5c0.1-0.3,0.1-0.9-0.7-1.2c-0.4-0.2-0.4-0.9-0.4-1.4c0-0.1,0-0.1,0-0.2l0-0.2
		c0-0.4-0.3-0.7-0.6-0.9c-0.2-0.1-0.5-0.1-0.7,0c0.5-0.3,0.8-0.6,1.1-0.8l1.2-0.1c0.8-0.1,0.9-0.6,0.9-0.9c0-0.5-0.3-1.2-2.4-3.1
		c-0.2-0.2-0.5-0.3-0.7-0.3c-0.2,0-0.5,0.1-0.8,0.4l-0.8,1h-9.4V2.6c0.9-0.3,1.5-0.7,1.5-1.3c0-1-1.6-1.3-3.4-1.3
		c-0.7,0-1.1,0.4-1.1,1.1v2.8h-9c0-0.1,0-0.1,0-0.2l0-0.3c-0.1-0.7-0.6-0.8-0.8-0.9l-0.1,0c-0.6,0-1,0.4-1,1c-0.2,2-0.8,3.6-1.8,4.8
		c-0.5,0.6-0.9,1.1-0.9,1.6C171.9,11,172.6,11.7,173.8,11.7z M196.5,7.3c-0.2,0.3-0.3,0.5-0.3,0.8c0,0.2,0.1,0.4,0.3,0.5
		c0.3,0.3,0.6,0.3,0.8,0.3c0.2,0,0.4-0.1,0.6-0.2c0.6-0.3,1.1-0.7,1.5-0.9c-0.1,0.1-0.2,0.3-0.3,0.6c-0.1,0.9-0.3,1.5-0.7,1.8
		c0,0-0.5,0.3-3.3,0.3c-2.8,0-3.6-0.1-3.7-0.1c-0.1,0-0.3-0.1-0.3-0.5V6.3l0-0.1c0-0.2-0.1-0.3-0.3-0.5h6.8
		C197.3,6.2,197,6.8,196.5,7.3z"/>
	<path d="M197.6,20.7c0.6,0.9,1.2,1.3,1.8,1.3c1,0,1.6-0.7,1.6-1.8c0-0.9-0.7-1.9-2-3c-1.7-1.4-4.1-2.6-7.2-3.6
		c-0.8-0.2-1.2,0.2-1.2,0.3c-0.3,0.5-0.2,1.1,0.4,1.5c1.1,0.6,2.1,1.2,3,1.8c-3.6,0.2-7.1,0.4-10.7,0.5c1.6-1.8,2.7-3.2,3.3-4.4
		c0.7,0,1.8-0.2,1.8-1.1c0-0.7-0.8-1.3-2.9-2.1c-0.6-0.2-1.2,0.1-1.3,0.6c-1.1,2.7-2.3,5-3.7,7c-2.2,0-3.9,0-5.2,0c0,0,0,0,0,0
		c-0.2,0-0.4,0.1-0.6,0.3c-0.2,0.2-0.2,0.5-0.2,0.9c0.3,1.8,0.7,3,1.6,3c0.5,0,0.8-0.4,1.2-1.3c6.9-0.5,13.2-1,18.8-1.8
		C196.6,19.6,197.1,20.1,197.6,20.7z"/>
	<path d="M197.1,22.2c-0.5-0.2-1.1-0.1-1.3,0.2c-0.4,0.5-0.3,1.1,0.2,1.5c2.2,1.7,3.7,3.5,4.3,5.3c0.3,0.7,0.8,1.6,1.7,1.6
		c1.1,0,1.8-0.7,1.8-1.9C203.9,26.5,201.6,24.3,197.1,22.2z"/>
	<path d="M196.5,29c-0.2-0.1-0.3-0.2-0.4-0.4c-0.1-0.3-0.2-1.6-0.2-2.5c0-0.7-0.4-1-0.7-1.1c-0.7-0.3-1.3,0.1-1.3,0.8
		c-0.1,1.3-0.3,2.2-0.6,2.8c-0.2,0.5-0.5,0.7-1,0.7c-0.1,0-0.2,0-0.3,0c-0.1,0-0.1,0-0.2,0c-1.1,0.1-2.5,0.1-4.3,0.1
		c-3.1,0-4-0.1-4.2-0.2c-0.1-0.1-0.2-0.3-0.2-0.5v-4.5c0.7-0.3,1.3-0.6,1.3-1.2c0-0.8-1-1.2-3.2-1.4l-0.1,0c-0.6,0-1,0.4-1,1v6.6
		c0,0.8,0.1,1.9,0.9,2.5c0.5,0.4,1.9,0.6,6.8,0.6c4,0,6.4-0.1,7.4-0.4c1-0.2,1.7-0.8,2-1.8C197.3,30,197.4,29.3,196.5,29z"/>
	<path d="M177,22.8c-0.1,0-0.2-0.1-0.4-0.1c-0.3,0-0.8,0.1-1,0.8c-0.6,2.3-1.7,3.9-3.4,4.8c-0.8,0.5-1.3,1.1-1.3,1.7
		c0,1.2,0.7,1.8,1.9,1.8c1,0,1.9-0.6,2.7-1.8c1.1-1.6,1.8-3.6,2-6.2C177.8,23.1,177.3,22.9,177,22.8z"/>
	<path d="M222.2,11c0.5-2.4,0.6-4.3,0.7-6.6c0-0.5-0.1-0.9-0.4-1.2c-0.8-0.8-2.8-0.5-2.8,1.1c0,1.6-0.1,3.4-0.3,5
		c-0.1,0.6-0.2,1.2-0.4,1.8c-1,0-5.2,0-8.1,0c-0.8,0-1.3,0.6-1.3,1.2c0,0.6,0.4,1.2,1.3,1.2l7.3,0c-0.3,0.8-0.6,1.6-0.9,2.3
		c-1.6,3.9-4,7.3-6.6,10.6c0,0-0.1,0.1-0.1,0.1c-0.1,0.1-0.2,0.2-0.3,0.4c-0.5,0.7-0.3,1.7,0.4,2.2c0.7,0.6,1.8,0.4,2.3-0.4
		c2.7-3.7,5.4-7.6,7.3-12.1c0.4-1.1,0.9-2.2,1.2-3.3c0.3,0,0.6,0,0.9,0c2.7,0,3.9,0.7,4.1,2.4c0.3,2.7-1.2,5.6-2.8,8.3
		c-0.6,1-1.2,1.8-1.6,2.4c-0.3-0.5-0.8-1-1.3-1.5l-0.7-0.7c-0.6-0.6-1.7-0.3-2,0.4c-0.2,0.4-0.1,0.9,0.3,1.2l0.5,0.5
		c1.2,1.1,1.5,1.5,1.6,2.6c0,0.4,0.2,0.8,0.6,1.3c0.3,0.3,0.7,0.4,1.1,0.4c0.5,0,0.9-0.2,1.2-0.6c0.4-0.4,1-1.1,1-1.2
		c0.8-0.9,1.5-2,2.2-3.2c1.6-2.6,4.9-9,2.3-12.8C227.2,11.1,224.5,11,222.2,11z"/>
	<path d="M231.7,10.4c-0.7-0.2-1.4,0.2-1.6,0.9c-0.1,0.5,0.1,1.1,0.6,1.3c3,1.5,5.4,3.7,6.7,6.1c1,1.8,0.3,2.5-0.3,2.9
		c-0.9,0.6-2.1,0.7-3.3,0.8l-0.3,0c-0.6,0.1-1,0.6-1,1.2c0,0.6,0.5,1.1,1.1,1.1c0.3,0,0.7,0,1.1,0c1.4,0,3.1-0.1,4.5-0.9
		c2.2-1.3,2.2-4,1.3-5.9C238.9,14.8,235.7,12,231.7,10.4z"/>
	<path d="M268.1,17.9c-1.1-0.8-2.3-1.3-3.6-1.4c-3.8-0.3-6.9,0.5-10.8,2.7l0-7.5c0.2-2.9,4.1-3.2,8.2-3.2l0.7,0c0.5,0,1-0.2,1.3-0.6
		c0.3-0.4,0.5-0.9,0.4-1.5c-0.2-0.8-0.9-1.4-1.8-1.4l-0.1,0c-2.7,0.2-5.3-0.7-6.9-2.4c-0.5-0.6-1.6-0.4-2,0.3
		c-0.2,0.4-0.1,0.8,0.1,1.1c0.7,1.1,1.6,2,3,2.7c-0.7,0.1-1.4,0.2-2,0.4c-2.8,0.8-4.1,2.7-4.1,6.1v7.9c0,0.9,0.7,1.6,1.7,1.6
		c0.7,0,1.2-0.5,1.7-0.8c0.2-0.1,0.3-0.3,0.5-0.4c2.6-1.6,5-2.7,8.2-2.7c0.5,0,1.1,0,1.7,0.1c0.8,0.1,1.5,0.4,2.1,1
		c1,1,1,2.9,0.3,4.1c-1,2-3.2,3.4-6.4,4.2c-1.8,0.4-3.4,0.7-5.3,0.7c-0.3,0-0.6,0-0.8,0l-0.2,0c-0.6,0-1,0.5-1,1.1
		c0,0.6,0.4,1.1,1,1.1c0.9,0.1,1.7,0.2,2.5,0.2c1.3,0,2.6-0.1,4.5-0.4c4.5-0.8,7.5-2.5,8.9-5.2c0.4-0.7,0.6-1.3,0.7-2
		C270.7,21.6,269.9,19.4,268.1,17.9z"/>
</g>
</svg>
